<svg xmlns="http://www.w3.org/2000/svg" viewBox="0 0 32 32">
  <defs>
    <linearGradient id="g" x1="0" y1="0" x2="1" y2="1">
      <stop offset="0%" stop-color="#4f46e5"></stop>
      <stop offset="55%" stop-color="#7c3aed"></stop>
      <stop offset="100%" stop-color="#ec4899"></stop>
    </linearGradient>
  </defs>
  <rect x="1" y="1" width="30" height="30" rx="8" fill="url(#g)"></rect>
  <rect x="7" y="9" width="18" height="16" rx="2" fill="none" stroke="#fff" stroke-width="1.6"></rect>
  <line x1="7" y1="14" x2="25" y2="14" stroke="#fff" stroke-width="1.6"></line>
  <line x1="11" y1="6" x2="11" y2="11" stroke="#fff" stroke-width="1.6" stroke-linecap="round"></line>
  <line x1="21" y1="6" x2="21" y2="11" stroke="#fff" stroke-width="1.6" stroke-linecap="round"></line>
  <path d="M16 21.6c-2.6-1.7-4-3-4-4.6 0-1.1.9-2 2-2 .7 0 1.4.4 2 1.1.6-.7 1.3-1.1 2-1.1 1.1 0 2 .9 2 2 0 1.6-1.4 2.9-4 4.6z" fill="#fff"></path>
</svg>
