<svg xmlns="http://www.w3.org/2000/svg" style="display:none">
  <defs>
    <symbol id="icon-calendar" viewBox="0 0 24 24" fill="none" stroke="currentColor" stroke-width="2" stroke-linecap="round" stroke-linejoin="round">
      <rect x="3" y="4" width="18" height="18" rx="2"></rect>
      <line x1="16" y1="2" x2="16" y2="6"></line>
      <line x1="8" y1="2" x2="8" y2="6"></line>
      <line x1="3" y1="10" x2="21" y2="10"></line>
    </symbol>

    <symbol id="icon-clock" viewBox="0 0 24 24" fill="none" stroke="currentColor" stroke-width="2" stroke-linecap="round" stroke-linejoin="round">
      <circle cx="12" cy="12" r="9"></circle>
      <polyline points="12 7 12 12 15 15"></polyline>
    </symbol>

    <symbol id="icon-tool" viewBox="0 0 24 24" fill="none" stroke="currentColor" stroke-width="2" stroke-linecap="round" stroke-linejoin="round">
      <path d="M14.7 6.3a4 4 0 0 0-5.6 5.6L2 19l3 3 7.1-7.1a4 4 0 0 0 5.6-5.6l-2.75 2.75-2-2z"></path>
    </symbol>

    <symbol id="icon-settings" viewBox="0 0 24 24" fill="none" stroke="currentColor" stroke-width="2" stroke-linecap="round" stroke-linejoin="round">
      <line x1="4" y1="6" x2="20" y2="6"></line>
      <circle cx="9" cy="6" r="2"></circle>
      <line x1="4" y1="12" x2="20" y2="12"></line>
      <circle cx="15" cy="12" r="2"></circle>
      <line x1="4" y1="18" x2="20" y2="18"></line>
      <circle cx="9" cy="18" r="2"></circle>
    </symbol>

    <symbol id="icon-moon" viewBox="0 0 24 24" fill="none" stroke="currentColor" stroke-width="2" stroke-linecap="round" stroke-linejoin="round">
      <path d="M21 12.79A9 9 0 1 1 11.21 3 7 7 0 0 0 21 12.79z"></path>
    </symbol>

    <symbol id="icon-sun" viewBox="0 0 24 24" fill="none" stroke="currentColor" stroke-width="2" stroke-linecap="round" stroke-linejoin="round">
      <circle cx="12" cy="12" r="4"></circle>
      <line x1="12" y1="2" x2="12" y2="4"></line>
      <line x1="12" y1="20" x2="12" y2="22"></line>
      <line x1="4.93" y1="4.93" x2="6.34" y2="6.34"></line>
      <line x1="17.66" y1="17.66" x2="19.07" y2="19.07"></line>
      <line x1="2" y1="12" x2="4" y2="12"></line>
      <line x1="20" y1="12" x2="22" y2="12"></line>
      <line x1="4.93" y1="19.07" x2="6.34" y2="17.66"></line>
      <line x1="17.66" y1="6.34" x2="19.07" y2="4.93"></line>
    </symbol>

    <symbol id="icon-paperclip" viewBox="0 0 24 24" fill="none" stroke="currentColor" stroke-width="2" stroke-linecap="round" stroke-linejoin="round">
      <path d="M21.44 11.05 12.25 20.24a5 5 0 0 1-7.07-7.07l9.19-9.19a3.5 3.5 0 0 1 4.95 4.95l-9.2 9.19a2 2 0 0 1-2.83-2.83l8.49-8.48"></path>
    </symbol>

    <symbol id="icon-file" viewBox="0 0 24 24" fill="none" stroke="currentColor" stroke-width="2" stroke-linecap="round" stroke-linejoin="round">
      <path d="M14 2H6a2 2 0 0 0-2 2v16a2 2 0 0 0 2 2h12a2 2 0 0 0 2-2V8z"></path>
      <polyline points="14 2 14 8 20 8"></polyline>
    </symbol>

    <symbol id="icon-repeat" viewBox="0 0 24 24" fill="none" stroke="currentColor" stroke-width="2" stroke-linecap="round" stroke-linejoin="round">
      <polyline points="17 1 21 5 17 9"></polyline>
      <path d="M3 11V9a4 4 0 0 1 4-4h14"></path>
      <polyline points="7 23 3 19 7 15"></polyline>
      <path d="M21 13v2a4 4 0 0 1-4 4H3"></path>
    </symbol>

    <symbol id="icon-menu" viewBox="0 0 24 24" fill="none" stroke="currentColor" stroke-width="2" stroke-linecap="round" stroke-linejoin="round">
      <line x1="3" y1="6" x2="21" y2="6"></line>
      <line x1="3" y1="12" x2="21" y2="12"></line>
      <line x1="3" y1="18" x2="21" y2="18"></line>
    </symbol>

    <symbol id="icon-x" viewBox="0 0 24 24" fill="none" stroke="currentColor" stroke-width="2" stroke-linecap="round" stroke-linejoin="round">
      <line x1="18" y1="6" x2="6" y2="18"></line>
      <line x1="6" y1="6" x2="18" y2="18"></line>
    </symbol>

    <symbol id="icon-plus" viewBox="0 0 24 24" fill="none" stroke="currentColor" stroke-width="2" stroke-linecap="round" stroke-linejoin="round">
      <line x1="12" y1="5" x2="12" y2="19"></line>
      <line x1="5" y1="12" x2="19" y2="12"></line>
    </symbol>

    <symbol id="icon-heart" viewBox="0 0 24 24" fill="none" stroke="currentColor" stroke-width="2" stroke-linecap="round" stroke-linejoin="round">
      <path d="M20.8 4.6a5.5 5.5 0 0 0-7.8 0L12 5.6l-1-1a5.5 5.5 0 0 0-7.8 7.8l1 1L12 21l7.8-7.8 1-1a5.5 5.5 0 0 0 0-7.8z"></path>
    </symbol>

    <symbol id="icon-check-circle" viewBox="0 0 24 24" fill="none" stroke="currentColor" stroke-width="2" stroke-linecap="round" stroke-linejoin="round">
      <circle cx="12" cy="12" r="9"></circle>
      <polyline points="8 12 11 15 16 9"></polyline>
    </symbol>

    <symbol id="icon-alert-circle" viewBox="0 0 24 24" fill="none" stroke="currentColor" stroke-width="2" stroke-linecap="round" stroke-linejoin="round">
      <circle cx="12" cy="12" r="9"></circle>
      <line x1="12" y1="8" x2="12" y2="12"></line>
      <line x1="12" y1="16" x2="12.01" y2="16"></line>
    </symbol>

    <symbol id="icon-trash" viewBox="0 0 24 24" fill="none" stroke="currentColor" stroke-width="2" stroke-linecap="round" stroke-linejoin="round">
      <polyline points="3 6 5 6 21 6"></polyline>
      <path d="M19 6l-1 14a2 2 0 0 1-2 2H8a2 2 0 0 1-2-2L5 6"></path>
      <path d="M9 6V4a1 1 0 0 1 1-1h4a1 1 0 0 1 1 1v2"></path>
      <line x1="10" y1="11" x2="10" y2="17"></line>
      <line x1="14" y1="11" x2="14" y2="17"></line>
    </symbol>

    <symbol id="icon-image" viewBox="0 0 24 24" fill="none" stroke="currentColor" stroke-width="2" stroke-linecap="round" stroke-linejoin="round">
      <rect x="3" y="3" width="18" height="18" rx="2"></rect>
      <circle cx="8.5" cy="8.5" r="1.5"></circle>
      <polyline points="21 15 16 10 5 21"></polyline>
    </symbol>

    <symbol id="icon-chevron-left" viewBox="0 0 24 24" fill="none" stroke="currentColor" stroke-width="2" stroke-linecap="round" stroke-linejoin="round">
      <polyline points="15 18 9 12 15 6"></polyline>
    </symbol>

    <symbol id="icon-chevron-right" viewBox="0 0 24 24" fill="none" stroke="currentColor" stroke-width="2" stroke-linecap="round" stroke-linejoin="round">
      <polyline points="9 18 15 12 9 6"></polyline>
    </symbol>

    <symbol id="icon-user-plus" viewBox="0 0 24 24" fill="none" stroke="currentColor" stroke-width="2" stroke-linecap="round" stroke-linejoin="round">
      <path d="M16 21v-2a4 4 0 0 0-4-4H6a4 4 0 0 0-4 4v2"></path>
      <circle cx="9" cy="7" r="4"></circle>
      <line x1="19" y1="8" x2="19" y2="14"></line>
      <line x1="22" y1="11" x2="16" y2="11"></line>
    </symbol>

    <symbol id="icon-bell" viewBox="0 0 24 24" fill="none" stroke="currentColor" stroke-width="2" stroke-linecap="round" stroke-linejoin="round">
      <path d="M18 8A6 6 0 0 0 6 8c0 7-3 9-3 9h18s-3-2-3-9"></path>
      <path d="M13.73 21a2 2 0 0 1-3.46 0"></path>
    </symbol>

    <symbol id="icon-wallet" viewBox="0 0 24 24" fill="none" stroke="currentColor" stroke-width="2" stroke-linecap="round" stroke-linejoin="round">
      <path d="M21 12V7H5a2 2 0 0 1 0-4h14v4"></path>
      <path d="M3 5v14a2 2 0 0 0 2 2h16v-5"></path>
      <path d="M18 12a2 2 0 0 0 0 4h4v-4z"></path>
    </symbol>

    <symbol id="icon-smile" viewBox="0 0 24 24" fill="none" stroke="currentColor" stroke-width="2" stroke-linecap="round" stroke-linejoin="round">
      <circle cx="12" cy="12" r="9"></circle>
      <path d="M8 13.5s1.5 2 4 2 4-2 4-2"></path>
      <line x1="9" y1="9.5" x2="9.01" y2="9.5"></line>
      <line x1="15" y1="9.5" x2="15.01" y2="9.5"></line>
    </symbol>

    <symbol id="icon-sunrise" viewBox="0 0 24 24" fill="none" stroke="currentColor" stroke-width="2" stroke-linecap="round" stroke-linejoin="round">
      <path d="M17 18a5 5 0 0 0-10 0"></path>
      <line x1="12" y1="2" x2="12" y2="9"></line>
      <line x1="4.22" y1="10.22" x2="5.64" y2="11.64"></line>
      <line x1="18.36" y1="11.64" x2="19.78" y2="10.22"></line>
      <line x1="1" y1="18" x2="3" y2="18"></line>
      <line x1="21" y1="18" x2="23" y2="18"></line>
      <line x1="4" y1="18" x2="20" y2="18"></line>
    </symbol>

    <symbol id="icon-briefcase" viewBox="0 0 24 24" fill="none" stroke="currentColor" stroke-width="2" stroke-linecap="round" stroke-linejoin="round">
      <rect x="2" y="7" width="20" height="14" rx="2"></rect>
      <path d="M16 21V5a2 2 0 0 0-2-2h-4a2 2 0 0 0-2 2v16"></path>
      <line x1="2" y1="13" x2="22" y2="13"></line>
    </symbol>

    <symbol id="icon-book" viewBox="0 0 24 24" fill="none" stroke="currentColor" stroke-width="2" stroke-linecap="round" stroke-linejoin="round">
      <path d="M4 19.5A2.5 2.5 0 0 1 6.5 17H20"></path>
      <path d="M6.5 2H20v20H6.5A2.5 2.5 0 0 1 4 19.5v-15A2.5 2.5 0 0 1 6.5 2z"></path>
    </symbol>

    <symbol id="icon-family" viewBox="0 0 24 24" fill="none" stroke="currentColor" stroke-width="2" stroke-linecap="round" stroke-linejoin="round">
      <circle cx="8" cy="7" r="3.5"></circle>
      <path d="M2 21v-1a5.5 5.5 0 0 1 11 0v1"></path>
      <circle cx="18" cy="9" r="2.5"></circle>
      <path d="M14.5 21v-1a4 4 0 0 1 7 0v1"></path>
    </symbol>

    <symbol id="icon-friends" viewBox="0 0 24 24" fill="none" stroke="currentColor" stroke-width="2" stroke-linecap="round" stroke-linejoin="round">
      <circle cx="8" cy="8" r="3"></circle>
      <path d="M2 20v-1a6 6 0 0 1 8-5.65"></path>
      <circle cx="16" cy="8" r="3"></circle>
      <path d="M14 13.35A6 6 0 0 1 22 19v1"></path>
    </symbol>

    <symbol id="icon-habit-flame" viewBox="0 0 24 24" fill="none" stroke="currentColor" stroke-width="2" stroke-linecap="round" stroke-linejoin="round">
      <path d="M12 21c-3.5 0-6-2.4-6-6 0-2.8 1.7-4.8 2.9-6.8.2 1.4 1 2.3 1.9 2.8-.3-2.3.9-4.2 2.8-5.6-.4 1.8.5 3.2 1.5 4.6.9 1.3 1.9 2.7 1.9 4.9 0 3.6-2.5 6.1-5 6.1Z"></path>
    </symbol>

    <symbol id="icon-habit-double-heart" viewBox="0 0 24 24" fill="none" stroke="currentColor" stroke-width="2" stroke-linecap="round" stroke-linejoin="round">
      <path d="M15.8 3.6a3.5 3.5 0 0 0-4.8 0L10 4.6l-1-1a3.5 3.5 0 0 0-4.8 4.8l1 1L10 14l4.8-4.8 1-1a3.5 3.5 0 0 0 0-4.8z"></path>
      <path d="M20.8 10.6a3.5 3.5 0 0 0-4.8 0L15 11.6l-1-1a3.5 3.5 0 0 0-4.8 4.8l1 1L15 21l4.8-4.8 1-1a3.5 3.5 0 0 0 0-4.8z"></path>
    </symbol>

    <symbol id="icon-habit-check" viewBox="0 0 24 24" fill="none" stroke="currentColor" stroke-width="2.2" stroke-linecap="round" stroke-linejoin="round">
      <path d="M4 13c1.7 2.3 3.5 4.4 5.3 6.6C13.2 13.8 16.8 8.2 20.6 4"></path>
    </symbol>

    <symbol id="icon-habit-snowflake" viewBox="0 0 24 24" fill="none" stroke="currentColor" stroke-width="2" stroke-linecap="round" stroke-linejoin="round">
      <line x1="12" y1="2" x2="12" y2="22"></line>
      <line x1="4" y1="7" x2="20" y2="17"></line>
      <line x1="20" y1="7" x2="4" y2="17"></line>
    </symbol>

    <symbol id="icon-habit-swap" viewBox="0 0 24 24" fill="none" stroke="currentColor" stroke-width="2" stroke-linecap="round" stroke-linejoin="round">
      <path d="M21 8a9 9 0 0 0-15.5-5.5L3 5"></path>
      <path d="M3 3v5h5"></path>
      <path d="M3 16a9 9 0 0 0 15.5 5.5L21 19"></path>
      <path d="M21 21v-5h-5"></path>
    </symbol>

    <symbol id="icon-habit-list-check" viewBox="0 0 24 24" fill="none" stroke="currentColor" stroke-width="2" stroke-linecap="round" stroke-linejoin="round">
      <path d="M3 6l2 2 4-4"></path>
      <line x1="11" y1="6" x2="21" y2="6"></line>
      <path d="M3 14l2 2 4-4"></path>
      <line x1="11" y1="14" x2="21" y2="14"></line>
    </symbol>

    <symbol id="icon-film" viewBox="0 0 24 24" fill="none" stroke="currentColor" stroke-width="2" stroke-linecap="round" stroke-linejoin="round">
      <rect x="2" y="2" width="20" height="20" rx="2.18" ry="2.18"></rect>
      <line x1="7" y1="2" x2="7" y2="22"></line>
      <line x1="17" y1="2" x2="17" y2="22"></line>
      <line x1="2" y1="12" x2="22" y2="12"></line>
      <line x1="2" y1="7" x2="7" y2="7"></line>
      <line x1="2" y1="17" x2="7" y2="17"></line>
      <line x1="17" y1="17" x2="22" y2="17"></line>
      <line x1="17" y1="7" x2="22" y2="7"></line>
    </symbol>

    <symbol id="icon-tv" viewBox="0 0 24 24" fill="none" stroke="currentColor" stroke-width="2" stroke-linecap="round" stroke-linejoin="round">
      <rect x="2" y="7" width="20" height="15" rx="2" ry="2"></rect>
      <polyline points="17 2 12 7 7 2"></polyline>
    </symbol>

    <symbol id="icon-music" viewBox="0 0 24 24" fill="none" stroke="currentColor" stroke-width="2" stroke-linecap="round" stroke-linejoin="round">
      <path d="M9 18V5l12-2v13"></path>
      <circle cx="6" cy="18" r="3"></circle>
      <circle cx="18" cy="16" r="3"></circle>
    </symbol>
  </defs>
</svg>
